<?xml version="1.0" encoding="UTF-8"?>
<svg width="768px" height="486px" viewBox="0 0 768 486" version="1.1" xmlns="http://www.w3.org/2000/svg" xmlns:xlink="http://www.w3.org/1999/xlink">
    <!-- Generator: Sketch 47.1 (45422) - http://www.bohemiancoding.com/sketch -->
    <title>happyorder_logo_multi_black</title>
    <desc>Created with Sketch.</desc>
    <defs></defs>
    <g id="Logo" stroke="none" stroke-width="1" fill="none" fill-rule="evenodd">
        <g id="Logos" transform="translate(-216.000000, -904.000000)">
            <g id="happyorder_logo_multi_black" transform="translate(216.000000, 904.000000)">
                <path d="M727.835497,192 C701.888745,358.551102 557.828015,486 384,486 C210.171985,486 66.1112549,358.551102 40.1645025,192 L0,192 L0,114 L180,114 L180,192 L131.660058,192 C156.483616,308.565798 260.031132,396 384,396 C507.968868,396 611.516384,308.565798 636.339942,192 L588,192 L588,114 L768,114 L768,192 L727.835497,192 Z" id="Smile" fill="#D3364F"></path>
                <path d="M423.842439,0 C448.286004,0 463.684877,17.3007368 463.684877,45.0301407 C463.684877,72.6992632 448.286004,90 423.842439,90 C399.341629,90 384,72.6992632 384,45.0301407 C384,17.3007368 399.341629,0 423.842439,0 Z M423.842439,15.1908908 C410.332646,15.1908908 401.631424,26.7649029 401.631424,45.0301407 C401.631424,63.2350971 410.275401,74.7488279 423.842439,74.7488279 C437.352231,74.7488279 445.996208,63.2350971 445.996208,45.0301407 C445.996208,26.7649029 437.352231,15.1908908 423.842439,15.1908908 Z M493.48519,15.7334226 L493.48519,43.4628265 L508.655084,43.4628265 C517.356306,43.4628265 522.451101,38.2183523 522.451101,29.5981246 C522.451101,21.1587408 517.070082,15.7334226 508.483349,15.7334226 L493.48519,15.7334226 Z M493.48519,56.664434 L493.48519,88.4929672 L476.197235,88.4929672 L476.197235,1.50703282 L510.315186,1.50703282 C529.320487,1.50703282 540.197015,12.0562626 540.197015,29.2364367 C540.197015,40.3884796 534.701506,50.0334896 525.198855,53.9517749 L542.6013,88.4929672 L523.02355,88.4929672 L507.624676,56.664434 L493.48519,56.664434 Z M552.938352,1.50703282 L584.769799,1.50703282 C609.559396,1.50703282 624.158351,17.0596115 624.158351,44.6684528 C624.158351,72.277294 609.559396,88.4929672 584.769799,88.4929672 L552.938352,88.4929672 L552.938352,1.50703282 Z M570.226307,16.5170797 L570.226307,73.422639 L582.705691,73.422639 C598.16181,73.422639 606.519563,63.5365037 606.519563,44.7287341 C606.519563,26.5237776 597.93283,16.5170797 582.705691,16.5170797 L570.226307,16.5170797 Z M690.18613,73.422639 L652.747977,73.422639 L652.747977,51.4802411 L688.06807,51.4802411 L688.06807,37.4949766 L652.747977,37.4949766 L652.747977,16.5170797 L690.18613,16.5170797 L690.18613,1.50703282 L635.460022,1.50703282 L635.460022,88.4929672 L690.18613,88.4929672 L690.18613,73.422639 Z M720.240005,15.7334226 L720.240005,43.4628265 L735.4099,43.4628265 C744.111122,43.4628265 749.205916,38.2183523 749.205916,29.5981246 C749.205916,21.1587408 743.824897,15.7334226 735.238165,15.7334226 L720.240005,15.7334226 Z M718.867957,56.664434 L718.867957,88.4929672 L701.580002,88.4929672 L701.580002,1.50703282 L735.697952,1.50703282 C754.703253,1.50703282 765.579781,12.0562626 765.579781,29.2364367 C765.579781,40.3884796 760.084272,50.0334896 750.581622,53.9517749 L767.984066,88.4929672 L748.406316,88.4929672 L733.007443,56.664434 L718.867957,56.664434 Z" id="Order" fill="#1F1F1F"></path>
                <path d="M66.1581455,90 L66.1581455,0 L58.0438519,0 L58.0438519,40.04158 L8.05506516,40.04158 L8.05506516,0 L0,0 L0,90 L8.05506516,90 L8.05506516,47.7754678 L58.0438519,47.7754678 L58.0438519,90 L66.1581455,90 Z M140.405472,90 L130.928925,62.4324324 L95.0365021,62.4324324 L85.5599548,90 L76.9718339,90 L108.955181,0 L117.010246,0 L148.934365,90 L140.405472,90 Z M112.805028,10.5405405 L97.4648673,55.0727651 L128.50056,55.0727651 L113.160399,10.5405405 L112.805028,10.5405405 Z M159.807281,0 L190.132233,0 C206.420048,0 217.554991,11.2889813 217.554991,28.004158 C217.554991,44.7193347 206.36082,56.0706861 190.073004,56.0706861 L167.862347,56.0706861 L167.862347,90 L159.807281,90 L159.807281,0 Z M167.862347,7.60914761 L167.862347,48.4615385 L188.236923,48.4615385 C201.385632,48.4615385 209.263012,40.7900208 209.263012,28.004158 C209.263012,15.2182952 201.444861,7.60914761 188.236923,7.60914761 L167.862347,7.60914761 Z M230.61936,0 L260.944311,0 C277.232126,0 288.367069,11.2889813 288.367069,28.004158 C288.367069,44.7193347 277.172898,56.0706861 260.885082,56.0706861 L238.674425,56.0706861 L238.674425,90 L230.61936,90 L230.61936,0 Z M238.674425,7.60914761 L238.674425,48.4615385 L259.049001,48.4615385 C272.197711,48.4615385 280.075091,40.7900208 280.075091,28.004158 C280.075091,15.2182952 272.256939,7.60914761 259.049001,7.60914761 L238.674425,7.60914761 Z M332.585587,90 L332.585587,51.0810811 L363.20668,0 L353.967047,0 L328.676511,42.7234927 L328.380369,42.7234927 L303.089833,0 L293.8502,0 L324.471293,51.0810811 L324.471293,90 L332.585587,90 Z" id="Happy" fill="#D3364F"></path>
            </g>
        </g>
    </g>
</svg>