<?xml version="1.0" encoding="UTF-8"?>
<svg width="384px" height="253px" viewBox="0 0 384 253" version="1.1" xmlns="http://www.w3.org/2000/svg" xmlns:xlink="http://www.w3.org/1999/xlink">
    <!-- Generator: Sketch 46.2 (44496) - http://www.bohemiancoding.com/sketch -->
    <title>happyorder_logo_multi_white</title>
    <desc>Created with Sketch.</desc>
    <defs></defs>
    <g id="Logo" stroke="none" stroke-width="1" fill="none" fill-rule="evenodd">
        <g id="Desktop-HD-Dark" transform="translate(-528.000000, -391.000000)">
            <g id="happyorder_logo_multi_white" transform="translate(528.000000, 391.000000)">
                <path d="M363.917749,106 C350.944373,189.275551 278.914008,253 192,253 C105.085992,253 33.0556274,189.275551 20.0822513,106 L0,106 L0,67 L90,67 L90,106 L65.830029,106 C78.241808,164.282899 130.015566,208 192,208 C253.984434,208 305.758192,164.282899 318.169971,106 L294,106 L294,67 L384,67 L384,106 L363.917749,106 Z" id="Smile" fill="#D3364F"></path>
                <path d="M211.921219,0 C224.143002,0 231.842439,8.65036839 231.842439,22.5150703 C231.842439,36.3496316 224.143002,45 211.921219,45 C199.670814,45 192,36.3496316 192,22.5150703 C192,8.65036839 199.670814,0 211.921219,0 Z M211.921219,7.59544541 C205.166323,7.59544541 200.815712,13.3824514 200.815712,22.5150703 C200.815712,31.6175486 205.137701,37.3744139 211.921219,37.3744139 C218.676116,37.3744139 222.998104,31.6175486 222.998104,22.5150703 C222.998104,13.3824514 218.676116,7.59544541 211.921219,7.59544541 Z M246.742595,7.86671132 L246.742595,21.7314133 L254.327542,21.7314133 C258.678153,21.7314133 261.22555,19.1091762 261.22555,14.7990623 C261.22555,10.5793704 258.535041,7.86671132 254.241675,7.86671132 L246.742595,7.86671132 Z M246.742595,28.332217 L246.742595,44.2464836 L238.098618,44.2464836 L238.098618,0.75351641 L255.157593,0.75351641 C264.660243,0.75351641 270.098507,6.02813128 270.098507,14.6182184 C270.098507,20.1942398 267.350753,25.0167448 262.599428,26.9758875 L271.30065,44.2464836 L261.511775,44.2464836 L253.812338,28.332217 L246.742595,28.332217 Z M276.469176,0.75351641 L292.384899,0.75351641 C304.779698,0.75351641 312.079176,8.52980576 312.079176,22.3342264 C312.079176,36.138647 304.779698,44.2464836 292.384899,44.2464836 L276.469176,44.2464836 L276.469176,0.75351641 Z M285.113153,8.25853985 L285.113153,36.7113195 L291.352846,36.7113195 C299.080905,36.7113195 303.259781,31.7682518 303.259781,22.364367 C303.259781,13.2618888 298.966415,8.25853985 291.352846,8.25853985 L285.113153,8.25853985 Z M345.093065,36.7113195 L326.373988,36.7113195 L326.373988,25.7401206 L344.034035,25.7401206 L344.034035,18.7474883 L326.373988,18.7474883 L326.373988,8.25853985 L345.093065,8.25853985 L345.093065,0.75351641 L317.730011,0.75351641 L317.730011,44.2464836 L345.093065,44.2464836 L345.093065,36.7113195 Z M360.120003,7.86671132 L360.120003,21.7314133 L367.70495,21.7314133 C372.055561,21.7314133 374.602958,19.1091762 374.602958,14.7990623 C374.602958,10.5793704 371.912449,7.86671132 367.619082,7.86671132 L360.120003,7.86671132 Z M359.433978,28.332217 L359.433978,44.2464836 L350.790001,44.2464836 L350.790001,0.75351641 L367.848976,0.75351641 C377.351627,0.75351641 382.789891,6.02813128 382.789891,14.6182184 C382.789891,20.1942398 380.042136,25.0167448 375.290811,26.9758875 L383.992033,44.2464836 L374.203158,44.2464836 L366.503721,28.332217 L359.433978,28.332217 Z" id="Order" fill="#FFFFFF"></path>
                <path d="M33.0790727,45 L33.0790727,0 L29.021926,0 L29.021926,20.02079 L4.02753258,20.02079 L4.02753258,0 L0,0 L0,45 L4.02753258,45 L4.02753258,23.8877339 L29.021926,23.8877339 L29.021926,45 L33.0790727,45 Z M70.202736,45 L65.4644624,31.2162162 L47.518251,31.2162162 L42.7799774,45 L38.4859169,45 L54.4775904,0 L58.505123,0 L74.4671823,45 L70.202736,45 Z M56.4025141,5.27027027 L48.7324337,27.5363825 L64.2502798,27.5363825 L56.5801993,5.27027027 L56.4025141,5.27027027 Z M79.9036407,0 L95.0661163,0 C103.210024,0 108.777496,5.64449064 108.777496,14.002079 C108.777496,22.3596674 103.18041,28.035343 95.0365021,28.035343 L83.9311733,28.035343 L83.9311733,45 L79.9036407,45 L79.9036407,0 Z M83.9311733,3.8045738 L83.9311733,24.2307692 L94.1184616,24.2307692 C100.692816,24.2307692 104.631506,20.3950104 104.631506,14.002079 C104.631506,7.60914761 100.72243,3.8045738 94.1184616,3.8045738 L83.9311733,3.8045738 Z M115.30968,0 L130.472155,0 C138.616063,0 144.183535,5.64449064 144.183535,14.002079 C144.183535,22.3596674 138.586449,28.035343 130.442541,28.035343 L119.337212,28.035343 L119.337212,45 L115.30968,45 L115.30968,0 Z M119.337212,3.8045738 L119.337212,24.2307692 L129.524501,24.2307692 C136.098855,24.2307692 140.037545,20.3950104 140.037545,14.002079 C140.037545,7.60914761 136.12847,3.8045738 129.524501,3.8045738 L119.337212,3.8045738 Z M166.292793,45 L166.292793,25.5405405 L181.60334,0 L176.983523,0 L164.338256,21.3617464 L164.190184,21.3617464 L151.544917,0 L146.9251,0 L162.235647,25.5405405 L162.235647,45 L166.292793,45 Z" id="Happy" fill="#D3364F"></path>
            </g>
        </g>
    </g>
</svg>